# xmcd CD database file
#
# Track frame offsets:
#	150
#	17266
#	32130
#	52234
#	67999
#	82270
#
# Disc length: 1342 seconds
#
# Revision: 0
# Processed by: cddbd v1.5.2PL0 Copyright (c) Steve Scherf et al.
# Submitted via: CDex 1.51
#
DISCID=49053c06
DTITLE=MELT - Electric Grooves
DYEAR=2013
DGENRE=Blues
TTITLE0=Natchez
TTITLE1=Mister
TTITLE2=My Love
TTITLE3=Hat's story
TTITLE4=Living in Russia
TTITLE5=Losted band
EXTD=YEAR: 2013
EXTT0=
EXTT1=
EXTT2=
EXTT3=
EXTT4=
EXTT5=
PLAYORDER=
